<?xml version="1.0" encoding="utf-8"?>
<!-- Generator: Adobe Illustrator 25.2.0, SVG Export Plug-In . SVG Version: 6.00 Build 0)  -->
<svg version="1.1" id="Layer_1" xmlns="http://www.w3.org/2000/svg" xmlns:xlink="http://www.w3.org/1999/xlink" x="0px" y="0px"
	 viewBox="0 0 512 512" style="enable-background:new 0 0 512 512;" xml:space="preserve">
<g transform="translate(0.000000,512.000000) scale(0.100000,-0.100000)">
	<path d="M3692.5,5110c-107-20-218-99-274-194c-39-67-54-142-61-296c-12-267-46-484-115-730c-50-178-56-230-36-311
		c9-35,27-81,40-104c12-22,123-172,245-334c122-161,227-301,233-311c10-15-1-40-62-146c-268-472-598-825-1030-1106
		c-117-75-310-188-323-188c-4,0-143,102-308,227c-165,126-329,244-366,263c-58,30-77,35-157,38c-84,4-104,1-231-36
		c-250-72-449-104-760-122c-165-9-214-20-290-65c-51-29-117-100-144-154c-49-95-51-122-51-658c0-334,4-520,11-555
		c35-165,168-291,337-320c89-15,447,2,670,32c912,124,1708,475,2427,1071c129,107,457,435,564,564c596,719,947,1515,1071,2427
		c30,221,47,581,32,669c-29,166-148,297-307,335C4743.5,5122,3771.5,5125,3692.5,5110z"/>
</g>
</svg>
