<?xml version="1.0" standalone="no"?>
<!DOCTYPE svg PUBLIC "-//W3C//DTD SVG 20010904//EN"
 "http://www.w3.org/TR/2001/REC-SVG-20010904/DTD/svg10.dtd">
<svg version="1.0" xmlns="http://www.w3.org/2000/svg"
 width="30.000000pt" height="30.000000pt" viewBox="0 0 30.000000 30.000000"
 preserveAspectRatio="xMidYMid meet">

<g transform="translate(0.000000,30.000000) scale(0.100000,-0.100000)"
fill="#ffaa33" stroke="none">
<path d="M39 254 c-18 -22 0 -48 37 -54 35 -6 49 -50 16 -50 -22 0 -57 -35
-67 -68 -10 -35 11 -52 64 -52 93 0 128 46 72 93 -19 15 -31 35 -31 49 0 32
-18 48 -52 48 -18 0 -28 5 -28 15 0 12 13 15 58 15 56 0 59 -1 90 -42 26 -33
32 -51 32 -89 0 -29 -6 -51 -15 -59 -25 -21 -17 -30 25 -30 42 0 50 9 25 30
-10 8 -15 30 -15 63 0 49 -16 82 -66 131 -22 22 -126 22 -145 0z m31 -189 c0
-8 -7 -15 -15 -15 -8 0 -15 7 -15 15 0 8 7 15 15 15 8 0 15 -7 15 -15z"/>
</g>
</svg>
